<svg width="411" height="731" viewBox="0 0 411 731" fill="none" xmlns="http://www.w3.org/2000/svg">
<path d="M634.5 72C634.5 187.008 535.256 280.5 412.5 280.5C289.744 280.5 190.5 187.008 190.5 72C190.5 -43.0076 289.744 -136.5 412.5 -136.5C535.256 -136.5 634.5 -43.0076 634.5 72Z" fill="#FDC72F" stroke="white" stroke-width="5"/>
<path d="M124.5 154C124.5 268.933 21.9778 362.5 -105 362.5C-231.978 362.5 -334.5 268.933 -334.5 154C-334.5 39.0666 -231.978 -54.5 -105 -54.5C21.9778 -54.5 124.5 39.0666 124.5 154Z" fill="#FDC72F" stroke="white" stroke-width="5"/>
<path d="M240.5 826.5C240.5 1103.29 -35.6796 1328.5 -377.5 1328.5C-719.32 1328.5 -995.5 1103.29 -995.5 826.5C-995.5 549.712 -719.32 324.5 -377.5 324.5C-35.6796 324.5 240.5 549.712 240.5 826.5Z" fill="#FDC72F" stroke="white" stroke-width="5"/>
<path d="M575.5 656.5C575.5 749.326 501.585 824.5 410.5 824.5C319.415 824.5 245.5 749.326 245.5 656.5C245.5 563.674 319.415 488.5 410.5 488.5C501.585 488.5 575.5 563.674 575.5 656.5Z" fill="#FDC72F" stroke="white" stroke-width="5"/>
</svg>
