<svg id="Capa_1" enable-background="new 0 0 497 497" height="512" viewBox="0 0 497 497" width="512" xmlns="http://www.w3.org/2000/svg"><g><path d="m0 123.25c0-22.091 18.159-40 40.25-40h417.5c22.091 0 39.25 17.909 39.25 40v250.5c0 22.091-17.159 40-39.25 40h-417.5c-22.091 0-40.25-17.909-40.25-40z" fill="#3c6a73"/><path d="m60.25 413.75h-20c-22.09 0-40.25-17.91-40.25-40v-250.5c0-22.09 18.16-40 40.25-40h20c-22.09 0-40.25 17.91-40.25 40v250.5c0 22.09 18.16 40 40.25 40z" fill="#2f535a"/><path d="m75.288 243.743c-12.474 0-22.585-10.112-22.585-22.585v-31.593c0-12.474 10.112-22.585 22.585-22.585h66.627c12.474 0 22.585 10.112 22.585 22.585v31.593c0 12.474-10.112 22.585-22.585 22.585z" fill="#ffd064"/><path d="m95.29 243.74h-20c-12.48 0-22.59-10.11-22.59-22.58v-31.6c0-12.47 10.11-22.58 22.59-22.58h20c-12.48 0-22.59 10.11-22.59 22.58v31.6c0 12.47 10.11 22.58 22.59 22.58z" fill="#ffc250"/><g fill="#b4d2d7"><path d="m112.702 358.34h-45c-8.284 0-15-6.716-15-15 0-8.284 6.716-15 15-15h45c8.284 0 15 6.716 15 15 0 8.285-6.716 15-15 15z"/><path d="m222.702 358.34h-45c-8.284 0-15-6.716-15-15 0-8.284 6.716-15 15-15h45c8.284 0 15 6.716 15 15 0 8.285-6.716 15-15 15z"/><path d="m332.702 358.34h-45c-8.284 0-15-6.716-15-15 0-8.284 6.716-15 15-15h45c8.284 0 15 6.716 15 15 0 8.285-6.716 15-15 15z"/><path d="m397.702 358.34c-8.284 0-15-6.716-15-15 0-8.284 6.716-15 15-15h45c8.284 0 15 6.716 15 15 0 8.284-6.716 15-15 15z"/></g><g fill="#9bb9c3"><path d="m87.7 358.34h-20c-8.28 0-15-6.72-15-15 0-4.14 1.68-7.89 4.4-10.6 2.71-2.72 6.46-4.4 10.6-4.4h20c-4.14 0-7.89 1.68-10.6 4.4-2.72 2.71-4.4 6.46-4.4 10.6 0 8.28 6.72 15 15 15z"/><path d="m197.7 358.34h-20c-8.28 0-15-6.72-15-15 0-4.14 1.68-7.89 4.4-10.6 2.71-2.72 6.46-4.4 10.6-4.4h20c-4.14 0-7.89 1.68-10.6 4.4-2.72 2.71-4.4 6.46-4.4 10.6 0 8.28 6.72 15 15 15z"/><path d="m307.7 358.34h-20c-8.28 0-15-6.72-15-15 0-4.14 1.68-7.89 4.4-10.6 2.71-2.72 6.46-4.4 10.6-4.4h20c-4.14 0-7.89 1.68-10.6 4.4-2.72 2.71-4.4 6.46-4.4 10.6 0 8.28 6.72 15 15 15z"/><path d="m417.7 358.34h-20c-8.28 0-15-6.72-15-15 0-4.14 1.68-7.89 4.4-10.6 2.71-2.72 6.46-4.4 10.6-4.4h20c-4.14 0-7.89 1.68-10.6 4.4-2.72 2.71-4.4 6.46-4.4 10.6 0 8.28 6.72 15 15 15z"/></g><g><g><path d="m399.442 294.5c-1.639 0-3.288-.534-4.67-1.635-3.239-2.582-3.771-7.301-1.19-10.54 1.948-2.444 3.824-4.961 5.574-7.479 14.494-20.859 21.844-43.312 21.844-66.734 0-23.008-7.099-45.1-21.1-65.66-1.796-2.634-3.726-5.266-5.731-7.818-2.56-3.257-1.994-7.972 1.263-10.53 3.254-2.56 7.971-1.995 10.53 1.263 2.214 2.816 4.345 5.723 6.333 8.638 15.73 23.1 23.705 48.032 23.705 74.107 0 26.167-8.481 52.203-24.526 75.295-1.938 2.787-4.01 5.567-6.161 8.268-1.481 1.857-3.666 2.825-5.871 2.825z" fill="#6cbff8"/></g><g><path d="m377.344 272.453c-1.565 0-3.143-.487-4.491-1.498-3.315-2.484-3.988-7.185-1.505-10.499.791-1.057 1.575-2.142 2.33-3.228 10.832-15.578 16.325-32.104 16.325-49.116 0-16.698-5.298-32.941-15.746-48.278-.759-1.113-1.55-2.229-2.349-3.313-2.458-3.333-1.749-8.029 1.585-10.487 3.333-2.459 8.028-1.749 10.487 1.585.909 1.233 1.809 2.501 2.673 3.769 12.176 17.873 18.35 36.958 18.35 56.725 0 20.133-6.396 39.54-19.011 57.681-.855 1.229-1.744 2.461-2.641 3.657-1.473 1.966-3.726 3.002-6.007 3.002z" fill="#6cbff8"/></g><g><path d="m355.116 250.278c-1.44 0-2.896-.414-4.182-1.279-3.436-2.313-4.347-6.974-2.033-10.41 6.8-10.102 10.105-20.07 10.105-30.477 0-10.133-3.14-19.855-9.6-29.723-2.269-3.465-1.298-8.113 2.168-10.383 3.465-2.268 8.114-1.299 10.383 2.168 8.107 12.385 12.049 24.795 12.049 37.938 0 13.487-4.142 26.196-12.662 38.854-1.448 2.15-3.816 3.312-6.228 3.312z" fill="#6cbff8"/></g><g><path d="m332.494 227.708c-1.109 0-2.235-.247-3.299-.77-3.718-1.824-5.253-6.318-3.428-10.037 1.987-4.05 2.242-6.824 2.242-8.789 0-1.813-.214-4.365-1.879-8.022-1.716-3.77-.052-8.217 3.719-9.934 3.771-1.715 8.217-.052 9.934 3.719 2.892 6.353 3.227 11.168 3.227 14.237 0 3.307-.392 8.501-3.777 15.398-1.303 2.656-3.968 4.198-6.739 4.198z" fill="#6cbff8"/></g></g></g></svg>