<svg width="513" height="514" xmlns="http://www.w3.org/2000/svg" xmlns:xlink="http://www.w3.org/1999/xlink" overflow="hidden"><defs><clipPath id="clip0"><rect x="80" y="135" width="513" height="514"/></clipPath></defs><g clip-path="url(#clip0)" transform="translate(-80 -135)"><path d="M277.254 273.991 237.944 273.991 237.944 203.51C237.946 197.619 241.231 192.118 246.7 188.851L335.148 135.991 356.944 165.311 277.254 212.937Z" fill="#F9E109" fill-rule="evenodd"/><path d="M356.944 164.992 277.251 212.729 277.251 273.991 237.944 273.991 237.944 203.27C237.946 197.369 241.229 191.861 246.69 188.595L256.615 182.584C272.669 187.354 290.295 184.887 303.98 175.953L345.152 148.991Z" fill="#FCBC04" fill-rule="evenodd"/><path d="M365.611 647.991 149.278 647.991 109.944 338.991 404.944 338.991Z" fill="#F8664F" fill-rule="evenodd"/><path d="M129.611 303.991 385.278 303.991C396.14 303.991 404.944 311.825 404.944 321.491L404.944 338.991 404.944 338.991 109.944 338.991 109.944 338.991 109.944 321.491C109.944 311.825 118.749 303.991 129.611 303.991Z" fill="#84D2F4" fill-rule="evenodd"/><path d="M178.644 267.991 336.244 267.991C347.125 267.991 355.944 276.049 355.944 285.991L355.944 303.991 355.944 303.991 158.944 303.991 158.944 303.991 158.944 285.991C158.944 276.049 167.764 267.991 178.644 267.991Z" fill="#84D2F4" fill-rule="evenodd"/><path d="M401.601 365.476 178.778 365.476C235.466 416.367 310.56 447.369 390.489 452.879L365.611 647.991 149.278 647.991 109.944 338.991 404.944 338.991Z" fill="#CC5144" fill-rule="evenodd"/><path d="M404.944 321.491 404.944 338.991 109.944 338.991 109.944 321.491C109.976 311.837 118.762 304.019 129.611 303.991 129.643 313.644 138.429 321.462 149.278 321.491Z" fill="#57B7EB" fill-rule="evenodd"/><path d="M355.944 285.991 355.944 303.991 158.944 303.991 158.944 285.991C158.976 276.061 167.777 268.02 178.644 267.991 178.676 277.92 187.477 285.961 198.344 285.991Z" fill="#57B7EB" fill-rule="evenodd"/><path d="M464.569 312.288 444.819 533.033 434.944 630.161 484.319 638.991 513.944 321.119 484.319 306.991Z" fill="#E59730" fill-rule="evenodd"/><path d="M404.944 356.419 424.694 568.991 483.944 568.991 464.194 347.562 434.569 320.991Z" fill="#FCBC04" fill-rule="evenodd"/><path d="M483.944 568.991 424.694 568.991 404.944 355.928 416.597 341.991 434.569 471.338 444.444 471.338 455.208 414.875 464.194 409.194 470.218 414.61Z" fill="#E59730" fill-rule="evenodd"/><path d="M385.253 382.983 356.135 373.991 345.944 400.651 395.08 541.991 440.944 524.323Z" fill="#F9E109" fill-rule="evenodd"/><path d="M440.944 524.26 395.065 541.991 345.944 400.143 355.965 373.991 373.943 422.751C384.431 451.215 403.725 476.379 429.548 495.27Z" fill="#FCBC04" fill-rule="evenodd"/><path d="M562.855 320.991 521.944 488.991 562.855 488.991 592.944 365.201Z" fill="#F9E109" fill-rule="evenodd"/><path d="M561.732 403.443 577.944 342.274 563.273 320.991 521.944 488.991 563.273 488.991 577.083 432.764C564.968 427.136 558.677 415.12 561.732 403.443Z" fill="#FCBC04" fill-rule="evenodd"/><path d="M286.944 373.991 356.308 541.991 395.944 533.149 326.58 373.991Z" fill="#F9E109" fill-rule="evenodd"/><path d="M286.944 373.991 356.166 541.991 375.944 537.57 305.318 373.991Z" fill="#FCBC04" fill-rule="evenodd"/><path d="M503.569 347.991 473.944 559.991 513.444 551.157 552.944 365.657Z" fill="#F9E109" fill-rule="evenodd"/><path d="M530.944 471.392 513.804 551.157 473.944 559.991 503.839 347.991 523.171 354.881 515.199 454.079C514.555 462.605 521.408 470.14 530.944 471.392Z" fill="#FCBC04" fill-rule="evenodd"/><path d="M494.145 568.991 454.945 568.991 464.745 409.991 503.945 418.824Z" fill="#F9E109" fill-rule="evenodd"/><path d="M481.685 485.666 483.898 414.319 464.732 409.991 454.944 568.991 494.098 568.991 497.944 510.037C487.744 505.449 481.405 495.949 481.687 485.666Z" fill="#FCBC04" fill-rule="evenodd"/><path d="M543.659 453.991C543.659 488.082 503.944 515.718 454.944 515.718 405.944 515.718 366.23 488.082 366.23 453.991L316.944 453.991 346.516 647.991 563.373 647.991 592.944 453.991Z" fill="#84D2F4" fill-rule="evenodd"/><path d="M567.944 612.718 562.542 647.991 346.416 647.991 316.944 453.991 366.064 453.991C366.41 469.078 373.786 483.343 386.399 493.32 398.277 562.058 464.221 612.752 541.715 612.718Z" fill="#57B7EB" fill-rule="evenodd"/><path d="M483.944 586.491C483.944 601.126 470.737 612.991 454.444 612.991 438.152 612.991 424.944 601.126 424.944 586.491 424.944 571.855 438.152 559.991 454.444 559.991 470.737 559.991 483.944 571.855 483.944 586.491Z" fill="#F9E109" fill-rule="evenodd"/><path d="M478.944 601.15C469.855 613.421 451.521 616.683 437.994 608.437 429.846 603.471 424.956 595.154 424.945 586.249 424.925 580.786 426.782 575.453 430.256 570.991 444.239 583.744 460.76 593.978 478.944 601.15Z" fill="#FCBC04" fill-rule="evenodd"/><path d="M316.56 559.991 139.329 559.991C117.578 559.991 99.9443 544.097 99.9443 524.491 99.9443 504.885 117.578 488.991 139.329 488.991L316.56 488.991C338.311 488.991 355.944 504.885 355.944 524.491 355.944 544.097 338.311 559.991 316.56 559.991Z" fill="#F89C8D" fill-rule="evenodd"/><path d="M336.776 542.241C342.363 542.236 347.883 541.147 352.958 539.046 351.053 542.985 348.341 546.567 344.965 549.607 337.543 556.242 327.508 559.974 317.043 559.991L139.442 559.991C117.645 560.006 99.9616 544.124 99.9442 524.518 99.9357 515.087 104.101 506.04 111.52 499.374 114.898 496.338 118.881 493.9 123.26 492.186 128.336 490.085 133.856 488.995 139.442 488.991L317.043 488.991C326.635 489.003 335.895 492.158 343.091 497.866 348.004 501.683 351.742 506.573 353.944 512.066 350.266 518.034 343.277 521.737 335.691 521.739 332.442 521.738 329.236 521.07 326.317 519.787 320.489 517.124 313.596 517.124 307.768 519.787L286.851 529.194C281.021 531.857 274.13 531.857 268.302 529.194L247.384 519.787C241.555 517.124 234.663 517.124 228.834 519.787L207.918 529.194C202.088 531.857 195.197 531.857 189.368 529.194L168.45 519.787C162.622 517.124 155.729 517.124 149.901 519.787L134.016 526.976C132.181 527.767 130.264 528.391 128.292 528.839 135.764 537.323 147.144 542.261 159.176 542.241Z" fill="#F8664F" fill-rule="evenodd"/><path d="M79.9442 594.991 375.944 594.991 375.944 594.991 375.944 612.657C375.944 632.171 358.274 647.991 336.478 647.991L119.411 647.991C97.6142 647.991 79.9442 632.171 79.9442 612.657L79.9442 594.991 79.9442 594.991Z" fill="#FCBC04" fill-rule="evenodd"/><path d="M254.947 594.991 247.947 603.991 240.947 594.991Z" fill="#E59730" fill-rule="evenodd"/><path d="M254.947 594.991 247.947 603.991 240.947 594.991Z" fill="#E59730" fill-rule="evenodd"/><path d="M336.252 594.991 119.637 594.991C108.76 594.991 99.9443 587.156 99.9443 577.491 99.9443 567.825 108.76 559.991 119.637 559.991L336.252 559.991C347.128 559.991 355.944 567.825 355.944 577.491 355.944 587.156 347.128 594.991 336.252 594.991Z" fill="#CC5144" fill-rule="evenodd"/><path d="M257.444 603.991 217.944 559.991 296.944 559.991Z" fill="#F7F754" fill-rule="evenodd"/><path d="M254.134 569.424 245.653 559.991 217.944 559.991 257.528 603.991 279.944 579.078C270.06 579.938 260.356 576.308 254.134 569.424Z" fill="#F9E109" fill-rule="evenodd"/><path d="M89.9442 488.991C89.9418 499.764 96.7691 509.613 107.579 514.426L115.11 517.783C124.087 521.792 134.659 521.792 143.636 517.783L159.496 510.752C165.354 508.143 172.249 508.143 178.107 510.752L198.925 520.034C204.782 522.643 211.678 522.643 217.535 520.034L238.353 510.752C244.211 508.143 251.106 508.143 256.964 510.752L277.782 520.034C283.64 522.643 290.535 522.643 296.392 520.034L317.211 510.752C323.068 508.143 329.963 508.143 335.821 510.752 346.105 515.335 358.609 511.615 363.749 502.444 365.196 499.861 365.948 497.012 365.944 494.123L365.944 488.991Z" fill="#C4F236" fill-rule="evenodd"/><path d="M277.278 400.991 178.611 400.991C124.118 400.991 79.9442 440.389 79.9442 488.991L375.944 488.991C375.944 440.389 331.77 400.991 277.278 400.991Z" fill="#FCBC04" fill-rule="evenodd"/><path d="M375.944 488.991 79.9442 488.991C79.9627 449.366 109.496 414.61 152.168 403.991 162.709 438.536 197.782 462.502 237.811 462.51L371.406 462.51C374.43 471.077 375.96 480.008 375.944 488.991Z" fill="#E59730" fill-rule="evenodd"/><path d="M375.944 612.657C375.944 632.171 358.274 647.991 336.478 647.991L119.411 647.991C97.6142 647.991 79.9442 632.171 79.9442 612.657L79.9442 594.991 100.96 594.991C105.432 610.596 121.149 621.504 139.144 621.491L346.344 621.491C357.025 621.528 367.424 618.426 375.944 612.657Z" fill="#E59730" fill-rule="evenodd"/><path d="M365.938 488.991 365.938 494.088C365.98 495.333 365.815 496.578 365.445 497.779L106.702 497.779C109.552 501.095 113.231 503.774 117.446 505.601L124.937 509.029C133.949 512.982 144.51 512.982 153.522 509.029L169.392 501.909C175.214 499.273 182.099 499.273 187.922 501.909L208.819 511.225C214.642 513.862 221.527 513.862 227.349 511.225L248.246 501.909C254.069 499.273 260.955 499.273 266.778 501.909L287.674 511.225C293.497 513.862 300.382 513.862 306.205 511.225L327.102 501.909C332.924 499.273 339.809 499.273 345.632 501.909 351.395 504.482 358.173 504.514 363.967 501.997 360.513 508.481 353.189 512.618 345.139 512.631 341.894 512.631 338.692 511.97 335.775 510.698 329.952 508.062 323.068 508.062 317.245 510.698L296.348 520.013C290.525 522.65 283.64 522.65 277.818 520.013L256.921 510.698C251.098 508.062 244.212 508.062 238.389 510.698L217.493 520.013C211.67 522.65 204.785 522.65 198.962 520.013L178.065 510.698C172.242 508.062 165.358 508.062 159.535 510.698L143.665 517.817C134.653 521.771 124.092 521.771 115.08 517.817L107.589 514.389C96.7495 509.623 89.9026 499.766 89.9444 488.991Z" fill="#A1D51C" fill-rule="evenodd"/><path d="M257.943 435.991C257.943 440.961 253.466 444.991 247.943 444.991 242.421 444.991 237.943 440.961 237.943 435.991 237.943 431.02 242.421 426.991 247.943 426.991 253.466 426.991 257.943 431.02 257.943 435.991Z" fill="#F9E109" fill-rule="evenodd"/><path d="M217.946 427.491C217.946 432.185 213.693 435.991 208.446 435.991 203.2 435.991 198.946 432.185 198.946 427.491 198.946 422.797 203.2 418.991 208.446 418.991 213.693 418.991 217.946 422.797 217.946 427.491Z" fill="#F9E109" fill-rule="evenodd"/><path d="M188.943 444.991C188.943 449.961 184.466 453.991 178.943 453.991 173.421 453.991 168.943 449.961 168.943 444.991 168.943 440.02 173.421 435.991 178.943 435.991 184.466 435.991 188.943 440.02 188.943 444.991Z" fill="#F9E109" fill-rule="evenodd"/><path d="M336.943 444.991C336.943 449.961 332.466 453.991 326.943 453.991 321.421 453.991 316.943 449.961 316.943 444.991 316.943 440.02 321.421 435.991 326.943 435.991 332.466 435.991 336.943 440.02 336.943 444.991Z" fill="#F9E109" fill-rule="evenodd"/><path d="M148.946 435.991C148.946 440.961 144.693 444.991 139.446 444.991 134.2 444.991 129.946 440.961 129.946 435.991 129.946 431.02 134.2 426.991 139.446 426.991 144.693 426.991 148.946 431.02 148.946 435.991Z" fill="#FCBC04" fill-rule="evenodd"/><path d="M296.943 427.491C296.943 432.185 292.466 435.991 286.943 435.991 281.421 435.991 276.943 432.185 276.943 427.491 276.943 422.797 281.421 418.991 286.943 418.991 292.466 418.991 296.943 422.797 296.943 427.491Z" fill="#F9E109" fill-rule="evenodd"/><path d="M187.943 448.566C185.665 453.221 179.765 455.275 174.767 453.155 171.201 451.643 168.921 448.324 168.943 444.677 168.976 441.605 170.607 438.739 173.32 436.99L173.419 436.99C177.785 441.337 182.657 445.219 187.943 448.566Z" fill="#FCBC04" fill-rule="evenodd"/></g></svg>