<svg width="514" height="514" xmlns="http://www.w3.org/2000/svg" xmlns:xlink="http://www.w3.org/1999/xlink" overflow="hidden"><defs><clipPath id="clip0"><rect x="383" y="103" width="514" height="514"/></clipPath></defs><g clip-path="url(#clip0)" transform="translate(-383 -103)"><path d="M520 243 489 243 489 108.151C489 105.858 490.865 104 493.166 104L515.834 104C518.135 104 520 105.858 520 108.151Z" fill="#E4E4E4" fill-rule="evenodd"/><path d="M896 179.432 896 601.568C896 609.538 889.544 616 881.58 616L565 616 565 179.432C565 171.462 571.456 165 579.42 165L881.581 165C889.544 165.001 896 171.462 896 179.432Z" fill="#D67B42" fill-rule="evenodd"/><path d="M865 165.001 865 616 881.533 616C889.522 616 896 609.539 896 601.568L896 179.432C896 171.462 889.523 165 881.533 165L865 165Z" fill="#BE652B" fill-rule="evenodd"/><path d="M715 165 746 165 746 616 715 616Z" fill="#BE652B" fill-rule="evenodd"/><path d="M895.998 253.881 864.73 269.565C863.573 270.145 862.214 270.145 861.057 269.565L831.625 254.802C830.468 254.222 829.109 254.222 827.952 254.802L798.524 269.565C797.368 270.145 796.009 270.145 794.852 269.565L765.423 254.802C764.266 254.222 762.908 254.222 761.751 254.802L732.323 269.565C731.166 270.145 729.807 270.145 728.651 269.565L699.224 254.802C698.067 254.222 696.708 254.222 695.552 254.802L666.129 269.565C664.972 270.145 663.612 270.145 662.456 269.565L633.034 254.802C631.877 254.222 630.517 254.222 629.362 254.802L599.935 269.565C598.778 270.145 597.418 270.145 596.262 269.565L565 253.882 565 179.53C565 171.506 571.456 165 579.42 165L881.58 165C889.543 165 896 171.505 896 179.53L896 253.881Z" fill="#BE652B" fill-rule="evenodd"/><path d="M865 165.001 865 269 896 253.557 896 179.477C896 171.482 889.523 165 881.533 165L865 165Z" fill="#A75224" fill-rule="evenodd"/><path d="M581.449 616 427.552 616C420.16 616 414.063 610.233 413.684 602.882L396 260 613 260 595.317 602.881C594.938 610.233 588.841 616 581.449 616Z" fill="#F75632" fill-rule="evenodd"/><path d="M581.778 260 563.968 602.881C563.586 610.232 557.446 616 550 616L581.222 616C588.668 616 594.808 610.233 595.19 602.881L613 260Z" fill="#E33629" fill-rule="evenodd"/><path d="M614.72 260 394.279 260C388.602 260 384 255.392 384 249.707 384 237.166 394.153 227 406.678 227L602.322 227C614.847 227 625 237.166 625 249.707 624.999 255.392 620.397 260 614.72 260Z" fill="#F3F3F3" fill-rule="evenodd"/><path d="M602.142 227 571 227C583.624 227 593.858 237.166 593.858 249.707 593.858 255.392 589.22 260 583.497 260L614.639 260C620.362 260 625 255.392 625 249.707 624.999 237.165 614.765 227 602.142 227Z" fill="#E4E4E4" fill-rule="evenodd"/><path d="M555 421C555 458.003 532.391 488 504.5 488 476.61 488 454 458.003 454 421 454 383.997 476.61 354 504.5 354 532.391 354 555 383.997 555 421Z" fill="#FFD54F" fill-rule="evenodd"/></g></svg>